<?xml version="1.0" encoding="utf-8"?>
<!-- Generator: Adobe Illustrator 24.0.3, SVG Export Plug-In . SVG Version: 6.00 Build 0)  -->
<svg version="1.1" id="Layer_1" xmlns="http://www.w3.org/2000/svg" xmlns:xlink="http://www.w3.org/1999/xlink" x="0px" y="0px"
	 viewBox="0 0 192 192" style="enable-background:new 0 0 192 192;" xml:space="preserve">
<style type="text/css">
	.st0{fill-rule:evenodd;clip-rule:evenodd;fill:#F7A94B;}
	.st1{fill-rule:evenodd;clip-rule:evenodd;fill:#E29542;}
	.st2{fill:#F6F5EE;}
</style>
<g>
	<circle class="st0" cx="96" cy="96" r="96"/>
	<path class="st1" d="M186.1,129c-9.1,24.9-28.5,46-55.2,56.4c-3.1,1.2-6.2,2.2-9.3,3.1c-0.5-0.6-66-99.7-66-99.7
		C59,77,57.3,63.5,67.4,56.8c10.1-3.4,53.8-3.4,58.8,1.7C129.6,61.9,185,129.1,186.1,129z"/>
	<g>
		<path class="st2" d="M83.8,90.7c0.8,3.2,1.7,6.1,2.7,8.6c1.1,2.5,2.1,4.7,3.1,6.5c1.2,2.1,2.4,4,3.7,5.5l-3.4,17
			c-1-1.7-1.9-3.2-2.7-4.4c-0.8-1.2-1.6-2.5-2.3-3.7c-0.7-1.2-1.4-2.6-2-4c-0.6-1.4-1.3-3.2-2-5.2c-0.7-2-1.4-4.5-2.2-7.3
			s-1.6-6.2-2.6-10.3c-0.6,0.5-1.3,0.9-2.1,1.3c-0.7,0.4-1.6,0.7-2.6,1c-1,0.3-2.3,0.4-3.8,0.4c-2.4,0-4.4-0.3-6-1
			c-1.6-0.7-2.9-1.6-3.8-2.7c-1-1.1-1.6-2.5-2-4c-0.4-1.5-0.6-3.2-0.6-5c0-1.6,0.1-3.3,0.4-5.2s0.7-3.9,1.2-5.9c0.6-2,1.3-4,2.1-5.9
			c0.8-1.9,1.8-3.6,3-5.1c1.2-1.5,2.5-2.7,3.9-3.6c1.4-0.9,3-1.4,4.8-1.4c1.6,0,2.9,0.5,4,1.5c1.1,1,2.1,2.4,2.8,4.1
			c0.8,1.7,1.4,3.7,2,6c0.6,2.3,1.1,4.7,1.5,7.2c0.4,2.6,0.9,5.2,1.3,7.9C82.7,85.6,83.2,88.2,83.8,90.7z M62,78.2
			c0,0.6,0.3,1.1,0.8,1.7c0.5,0.5,1.2,1,1.9,1.4c0.8,0.4,1.6,0.7,2.6,1c0.9,0.2,1.8,0.4,2.7,0.4c0.8,0,1.4-0.1,2-0.3
			c0.6-0.2,1.1-0.5,1.4-0.9c0-1.9-0.3-3.6-0.7-5.1c-0.3-1.3-0.8-2.5-1.6-3.5c-0.8-1.1-1.8-1.6-3.2-1.6c-0.8,0-1.5,0.3-2.2,0.9
			c-0.7,0.6-1.3,1.3-1.9,2.1c-0.5,0.8-1,1.6-1.3,2.4C62.2,77.3,62,77.9,62,78.2z"/>
		<path class="st2" d="M135.1,90.7c0.8,3.2,1.7,6.1,2.7,8.6c1.1,2.5,2.1,4.7,3.1,6.5c1.2,2.1,2.4,4,3.7,5.5l-3.4,17
			c-1-1.7-1.9-3.2-2.7-4.4c-0.8-1.2-1.6-2.5-2.3-3.7c-0.7-1.2-1.4-2.6-2-4c-0.6-1.4-1.3-3.2-2-5.2c-0.7-2-1.4-4.5-2.2-7.3
			s-1.6-6.2-2.6-10.3c-0.6,0.5-1.3,0.9-2.1,1.3c-0.7,0.4-1.6,0.7-2.6,1c-1,0.3-2.3,0.4-3.8,0.4c-2.4,0-4.4-0.3-6-1
			c-1.6-0.7-2.9-1.6-3.8-2.7c-1-1.1-1.6-2.5-2-4c-0.4-1.5-0.6-3.2-0.6-5c0-1.6,0.1-3.3,0.4-5.2s0.7-3.9,1.2-5.9c0.6-2,1.3-4,2.1-5.9
			c0.8-1.9,1.8-3.6,3-5.1c1.2-1.5,2.5-2.7,3.9-3.6c1.4-0.9,3-1.4,4.8-1.4c1.6,0,2.9,0.5,4,1.5c1.1,1,2.1,2.4,2.8,4.1
			c0.8,1.7,1.4,3.7,2,6c0.6,2.3,1.1,4.7,1.5,7.2c0.4,2.6,0.9,5.2,1.3,7.9C134,85.6,134.6,88.2,135.1,90.7z M113.4,78.2
			c0,0.6,0.3,1.1,0.8,1.7c0.5,0.5,1.2,1,1.9,1.4c0.8,0.4,1.6,0.7,2.6,1c0.9,0.2,1.8,0.4,2.7,0.4c0.8,0,1.4-0.1,2-0.3
			c0.6-0.2,1.1-0.5,1.4-0.9c0-1.9-0.3-3.6-0.7-5.1c-0.3-1.3-0.8-2.5-1.6-3.5c-0.8-1.1-1.8-1.6-3.2-1.6c-0.8,0-1.5,0.3-2.2,0.9
			c-0.7,0.6-1.3,1.3-1.9,2.1c-0.5,0.8-1,1.6-1.3,2.4C113.5,77.3,113.4,77.9,113.4,78.2z"/>
	</g>
</g>
</svg>
