<?xml version="1.0" encoding="utf-8"?>
<!-- Generator: Adobe Illustrator 24.0.3, SVG Export Plug-In . SVG Version: 6.00 Build 0)  -->
<svg version="1.1" id="Layer_1" xmlns="http://www.w3.org/2000/svg" xmlns:xlink="http://www.w3.org/1999/xlink" x="0px" y="0px"
	 viewBox="0 0 192 192" style="enable-background:new 0 0 192 192;" xml:space="preserve">
<style type="text/css">
	.st0{fill:none;}
	.st1{fill:#E9A64A;}
	.st2{fill:#E29542;}
	.st3{fill:#F7E7CE;}
</style>
<g>
	<path class="st0" d="M168.2,32.7c0.3,0.4,0.6,0.7,0.9,1.1C168.8,33.5,168.5,33.1,168.2,32.7z"/>
	<path class="st0" d="M31,25.3c0.3-0.3,0.6-0.6,1-0.9C31.7,24.7,31.4,25,31,25.3z"/>
	<path class="st0" d="M36.2,20.9c0.6-0.4,1.1-0.9,1.7-1.3C37.3,20,36.7,20.5,36.2,20.9z"/>
	<path class="st0" d="M25.9,30.4c0.4-0.4,0.8-0.8,1.2-1.2C26.7,29.6,26.3,30,25.9,30.4z"/>
	<path class="st0" d="M32.7,23.8c0.4-0.3,0.7-0.6,1.1-0.9C33.5,23.2,33.1,23.5,32.7,23.8z"/>
	<path class="st0" d="M29.3,26.9c0.3-0.3,0.6-0.6,0.9-0.9C30,26.3,29.6,26.6,29.3,26.9z"/>
	<path class="st0" d="M161.6,25.9c0.4,0.4,0.8,0.8,1.2,1.2C162.4,26.7,162,26.3,161.6,25.9z"/>
	<path class="st0" d="M34.4,22.3c0.4-0.4,0.9-0.7,1.3-1.1C35.3,21.6,34.9,22,34.4,22.3z"/>
	<path class="st0" d="M159.7,24.2c0.5,0.5,1,0.9,1.5,1.4C160.7,25.1,160.2,24.6,159.7,24.2z"/>
	<path class="st0" d="M97.4,0c23,0.3,45.2,9,62.3,24.1C143,9.4,121.3,0.4,97.4,0z"/>
	<path class="st0" d="M89.5,0.2c0.6,0,1.3-0.1,1.9-0.1C90.7,0.1,90.1,0.2,89.5,0.2z"/>
	<path class="st0" d="M92.4,0.1c0.4,0,0.8,0,1.3,0C93.3,0,92.9,0.1,92.4,0.1z"/>
	<path class="st0" d="M96,0c-0.3,0-0.6,0-0.8,0c0.3,0,0.6,0,0.9,0C96.1,0,96,0,96,0z"/>
	<path class="st0" d="M27.6,28.6c0.3-0.3,0.7-0.7,1-1C28.3,28,28,28.3,27.6,28.6z"/>
	<path class="st0" d="M25.3,161c-0.3-0.3-0.6-0.6-0.9-1C24.7,160.3,25,160.6,25.3,161z"/>
	<path class="st0" d="M26.9,162.7c-0.3-0.3-0.6-0.6-0.9-0.9C26.3,162,26.6,162.4,26.9,162.7z"/>
	<path class="st0" d="M23.8,159.3c-0.3-0.4-0.6-0.7-0.9-1.1C23.2,158.5,23.5,158.9,23.8,159.3z"/>
	<path class="st0" d="M28.6,164.4c-0.3-0.3-0.7-0.7-1-1C28,163.7,28.3,164,28.6,164.4z"/>
	<path class="st0" d="M24.2,32.3c0.5-0.5,0.9-1,1.4-1.5C25.1,31.3,24.6,31.8,24.2,32.3z"/>
	<path class="st0" d="M22.3,157.6c-0.4-0.4-0.7-0.9-1.1-1.3C21.6,156.7,22,157.1,22.3,157.6z"/>
	<path class="st0" d="M30.4,166.1c-0.4-0.4-0.8-0.8-1.2-1.2C29.6,165.3,30,165.7,30.4,166.1z"/>
	<path class="st0" d="M0,96c0,0.3,0,0.6,0,0.8c0-0.3,0-0.6,0-1C0,95.9,0,96,0,96z"/>
	<path class="st0" d="M0,94.7c0.3-23,9-45.2,24.1-62.3C9.4,49,0.3,70.8,0,94.7z"/>
	<path class="st0" d="M20.9,155.8c-0.4-0.6-0.9-1.1-1.3-1.7C20,154.7,20.5,155.3,20.9,155.8z"/>
	<path class="st0" d="M0.1,99.6c0-0.4,0-0.8,0-1.3C0,98.7,0.1,99.1,0.1,99.6z"/>
	<path class="st0" d="M0.2,102.5c0-0.6-0.1-1.3-0.1-1.9C0.1,101.3,0.2,101.9,0.2,102.5z"/>
	<path class="st0" d="M32.3,167.8c-0.5-0.5-1-0.9-1.5-1.4C31.3,166.9,31.8,167.4,32.3,167.8z"/>
	<path class="st0" d="M104.3,191.6c-0.3,0-0.6,0.1-0.9,0.1c-0.2,0-0.3,0-0.5,0c1.1-0.1,2.2-0.2,3.2-0.3c0,0,0,0,0,0
		C105.5,191.5,104.9,191.6,104.3,191.6z"/>
	<path class="st0" d="M92.2,191.9c-0.1,0-0.2,0-0.3,0c0.8,0,1.5,0.1,2.3,0.1c0,0,0,0-0.1,0C93.6,192,92.9,191.9,92.2,191.9z"/>
	<path class="st0" d="M100.8,191.9c0.6,0,1.2-0.1,1.7-0.1c-0.4,0-0.9,0.1-1.3,0.1C101.1,191.9,100.9,191.9,100.8,191.9z"/>
	<path class="st0" d="M88.7,191.7c-0.1,0-0.2,0-0.3,0c-0.8-0.1-1.6-0.1-2.5-0.2c-0.3,0-0.6-0.1-0.8-0.1c-0.6-0.1-1.3-0.2-1.9-0.2
		c-0.3,0-0.6-0.1-0.9-0.1c-0.6-0.1-1.1-0.2-1.7-0.3c0,0,0,0,0,0c3.6,0.6,7.2,0.9,10.9,1.1c0,0-0.1,0-0.1,0
		C90.5,191.8,89.6,191.8,88.7,191.7z"/>
	<path class="st0" d="M89.1,0.2C69.9,1.6,52.3,8.6,37.9,19.6c6.9-5.2,14.7-9.6,23.1-13C70.3,3,79.7,0.9,89.1,0.2z"/>
	<path class="st0" d="M32.3,167.9c2.2,1.9,4.4,3.8,6.8,5.5c0,0,0,0,0,0C36.8,171.6,34.5,169.8,32.3,167.9z"/>
	<path class="st0" d="M0.2,102.9c1.4,19.2,8.4,36.8,19.3,51.2c-5.2-6.9-9.6-14.7-13-23.1C3,121.7,0.9,112.3,0.2,102.9z"/>
	<path class="st0" d="M152.9,173.3c-0.4,0.3-0.7,0.5-1.1,0.8c-0.3,0.2-0.6,0.4-0.9,0.6c-0.4,0.3-0.7,0.5-1.1,0.8
		c-0.3,0.2-0.6,0.4-0.9,0.6c0,0,0,0,0,0c1.8-1.2,3.5-2.4,5.2-3.7c-0.1,0.1-0.2,0.1-0.3,0.2C153.5,172.9,153.2,173.1,152.9,173.3z"/>
	<path class="st0" d="M163.5,164.3C163.4,164.3,163.4,164.3,163.5,164.3c0.2-0.2,0.6-0.6,0.9-0.9C164.1,163.7,163.8,164,163.5,164.3
		z"/>
	<path class="st0" d="M158.2,169.1c0.3-0.3,0.7-0.6,1-0.9c-0.1,0.1-0.2,0.2-0.4,0.3C158.6,168.8,158.4,169,158.2,169.1z"/>
	<path class="st0" d="M156.2,170.7c0.4-0.3,0.8-0.6,1.1-0.9c-0.2,0.1-0.3,0.3-0.5,0.4C156.6,170.4,156.4,170.6,156.2,170.7z"/>
	<path class="st0" d="M154.9,171.8c-0.3,0.2-0.5,0.4-0.8,0.6c0.6-0.4,1.1-0.9,1.7-1.3c0,0-0.1,0-0.1,0.1
		C155.5,171.4,155.2,171.6,154.9,171.8z"/>
	<path class="st0" d="M165.1,29.3c0.3,0.3,0.6,0.6,0.9,0.9C165.7,30,165.4,29.6,165.1,29.3z"/>
	<path class="st0" d="M191.8,89.1c-1.4-19.2-8.4-36.8-19.3-51.2c5.2,6.9,9.6,14.7,13,23.1C189,70.3,191.1,79.7,191.8,89.1z"/>
	<path class="st0" d="M191.8,89.5c0,0.6,0.1,1.3,0.1,1.9C191.9,90.7,191.8,90.1,191.8,89.5z"/>
	<path class="st0" d="M169.7,34.4c0.4,0.4,0.7,0.9,1.1,1.3C170.4,35.3,170,34.9,169.7,34.4z"/>
	<path class="st0" d="M163.4,27.6c0.3,0.3,0.7,0.7,1,1C164,28.3,163.7,28,163.4,27.6z"/>
	<path class="st0" d="M166.7,31c0.3,0.3,0.6,0.6,0.9,1C167.3,31.7,167,31.4,166.7,31z"/>
	<path class="st0" d="M171.1,36.2c0.4,0.6,0.9,1.1,1.3,1.7C172,37.3,171.5,36.7,171.1,36.2z"/>
	<path class="st0" d="M166.6,161c0.4-0.4,0.8-0.9,1.2-1.3c-0.2,0.3-0.5,0.5-0.7,0.8C166.9,160.7,166.8,160.9,166.6,161z"/>
	<path class="st0" d="M185.8,129.8c0,0.1-0.1,0.1-0.1,0.2c-0.2,0.4-0.3,0.9-0.5,1.3c-0.1,0.3-0.2,0.6-0.3,0.9
		c-0.2,0.5-0.4,1-0.6,1.5c-0.1,0.2-0.2,0.5-0.3,0.7c-0.3,0.7-0.6,1.4-1,2.1c0,0,0,0,0,0c-0.3,0.7-0.7,1.4-1,2.2
		c-0.1,0.2-0.2,0.5-0.4,0.7c-0.2,0.5-0.5,1-0.7,1.4c-0.1,0.3-0.3,0.6-0.4,0.8c-0.2,0.4-0.5,0.8-0.7,1.3c-0.2,0.3-0.3,0.6-0.5,0.9
		c-0.2,0.4-0.5,0.8-0.7,1.2c-0.2,0.3-0.4,0.6-0.5,0.9c-0.2,0.4-0.5,0.8-0.7,1.2c-0.2,0.3-0.4,0.6-0.6,0.9c-0.2,0.4-0.5,0.7-0.7,1.1
		c-0.2,0.3-0.4,0.6-0.6,0.9c-0.2,0.4-0.5,0.7-0.8,1.1c-0.2,0.3-0.4,0.6-0.6,0.9c-0.3,0.4-0.5,0.7-0.8,1.1c-0.2,0.3-0.4,0.6-0.6,0.9
		c-0.3,0.4-0.5,0.7-0.8,1.1c-0.2,0.3-0.4,0.6-0.7,0.8c-0.3,0.4-0.6,0.7-0.8,1c-0.2,0.3-0.4,0.5-0.7,0.8c-0.3,0.3-0.6,0.7-0.9,1
		c-0.2,0.3-0.5,0.5-0.7,0.8c-0.1,0.1-0.1,0.1-0.2,0.2c14.7-16.6,23.8-38.4,24.1-62.3C191.8,108.5,189.7,119.5,185.8,129.8
		C185.8,129.7,185.8,129.8,185.8,129.8z"/>
	<path class="st0" d="M165,162.7c0.4-0.4,0.7-0.8,1.1-1.1c-0.2,0.3-0.5,0.5-0.7,0.8C165.3,162.5,165.1,162.6,165,162.7z"/>
	<path class="st0" d="M191.9,92.4c0,0.4,0,0.8,0,1.3C192,93.3,191.9,92.9,191.9,92.4z"/>
	<path class="st0" d="M192,96c0-0.3,0-0.6,0-0.8c0,0.3,0,0.6,0,0.9C192,96.1,192,96,192,96z"/>
	<path class="st0" d="M160,167.5c0.3-0.3,0.6-0.6,0.9-0.9c0,0-0.1,0.1-0.1,0.1C160.6,167,160.3,167.3,160,167.5z"/>
	<path class="st0" d="M99.6,191.9c-0.4,0-0.8,0-1.3,0C98.7,192,99.1,191.9,99.6,191.9z"/>
	<path class="st0" d="M162.7,165.1c-0.3,0.3-0.6,0.6-0.9,0.9C162,165.7,162.4,165.4,162.7,165.1z"/>
	<path class="st0" d="M96,192c0.3,0,0.6,0,0.8,0c-0.3,0-0.6,0-0.9,0C95.9,192,96,192,96,192z"/>
	<path class="st1" d="M183,136.5c0.3-0.7,0.6-1.4,1-2.1C183.7,135.1,183.3,135.8,183,136.5z"/>
	<path class="st1" d="M179.7,142.9c0.2-0.4,0.5-0.8,0.7-1.3C180.2,142.1,180,142.5,179.7,142.9z"/>
	<path class="st1" d="M180.9,140.8c0.3-0.5,0.5-1,0.7-1.4C181.4,139.9,181.1,140.4,180.9,140.8z"/>
	<path class="st1" d="M168.7,158.7c0.3-0.3,0.6-0.7,0.9-1C169.3,158,169,158.3,168.7,158.7z"/>
	<path class="st1" d="M164.4,163.4c0.1-0.1,0.1-0.1,0.2-0.2c-0.3,0.4-0.7,0.7-1.1,1.1C163.8,164,164.1,163.7,164.4,163.4z"/>
	<path class="st1" d="M171.8,154.9c0.3-0.4,0.5-0.7,0.8-1.1C172.3,154.2,172,154.6,171.8,154.9z"/>
	<path class="st1" d="M173.2,153c0.3-0.4,0.5-0.7,0.8-1.1C173.8,152.3,173.5,152.6,173.2,153z"/>
	<path class="st1" d="M166.1,161.6c0.1-0.1,0.2-0.2,0.3-0.3c-0.3,0.4-0.7,0.7-1,1.1C165.6,162.1,165.9,161.8,166.1,161.6z"/>
	<path class="st1" d="M170.3,156.8c0.3-0.3,0.6-0.7,0.8-1C170.8,156.1,170.6,156.5,170.3,156.8z"/>
	<path class="st1" d="M174.6,151c0.3-0.4,0.5-0.7,0.8-1.1C175.1,150.3,174.9,150.7,174.6,151z"/>
	<path class="st1" d="M181.9,138.7c0.4-0.7,0.7-1.4,1-2.2C182.6,137.3,182.3,138,181.9,138.7z"/>
	<path class="st1" d="M177.3,147c0.2-0.4,0.5-0.8,0.7-1.2C177.8,146.3,177.5,146.7,177.3,147z"/>
	<path class="st1" d="M176,149.1c0.2-0.4,0.5-0.7,0.7-1.1C176.5,148.3,176.2,148.7,176,149.1z"/>
	<path class="st1" d="M178.5,145c0.2-0.4,0.5-0.8,0.7-1.2C179,144.2,178.8,144.6,178.5,145z"/>
	<path class="st1" d="M167.1,160.5c0.2-0.3,0.5-0.5,0.7-0.8c0,0,0,0,0,0c0.1-0.1,0.1-0.1,0.2-0.2
		C167.7,159.8,167.4,160.2,167.1,160.5z"/>
	<path class="st1" d="M149.8,175.5c0.4-0.3,0.7-0.5,1.1-0.8C150.5,175,150.2,175.2,149.8,175.5z"/>
	<path class="st1" d="M153.8,172.6c0.1-0.1,0.2-0.1,0.3-0.2c0,0,0,0,0,0c0.3-0.2,0.5-0.4,0.8-0.6
		C154.5,172.1,154.2,172.4,153.8,172.6z"/>
	<path class="st1" d="M39.2,171.8c0.2-9.6-3.3-16.2-7.6-23.5c-4.3-7.3-7.1-19.5-7.1-19.5c-1.8-9.9-1.5-20.4-2.1-25.8
		c-0.7-5.5-2-5.8,2.3-13.2c4.3-7.4,4.3-12.9,4.8-16.4c0.5-3.5,3.5-7,7.3-2.5c0.4,0.5,0.8,1.1,1.1,1.8c0.6-0.9,1.1-1.8,1.6-2.8
		c0.3-1.7,1.8-4,4.5-8c2.5-4.3,4.9-8,7.7-9.6c7.9-5.7,20.2-4.2,28,1.4c0.5,0,0.6,1.2,1.1,1.6c0.6,0.4,0.5,1.9,0.6,2.7
		c2.1,2.6,2.6,4.8,2.2,9.1c0.5,0.6,3.1,1.1,3.4,2.3l14.5,28.2c-0.1-1.5-0.2-2.6-0.2-3c-0.2-2.5-2.3-23.7-1.7-27.8
		c0.3-1.9,0.9-3.3,1.6-3.9c0.5-3,1.2-6.1,2.4-8.8c0-1.4,0.4-2.6,1.2-3.2c0.3-0.2,0.6-0.4,1-0.5c1.3-1.6,2.8-2.7,4.7-3.1
		c8.8-1.9,16.8-0.2,23.7,3c0.8,0.4,1.7,1.1,2.8,2c1.1,0.9,2.3,2.2,3.5,3.7c3,3.6,6.4,9.9,10.2,15.6c0.1-0.1,0.1-0.2,0.2-0.3
		c3.8-4.5,5,2.8,5.5,6.3c0.5,3.5-0.2,5.5,4.1,12.9c1.3,2.3,5.8,43.3,6.3,44.6c11,18.4,19.2-5.5,19.2-5.3c3.9-10.3,6-21.2,6.1-32.4
		c0-0.4,0-0.8,0-1.3c0-0.3,0-0.6,0-0.9c0-0.5,0-1,0-1.5c0-0.4,0-0.8,0-1.3c0-0.4,0-0.7,0-1.1c0-0.6-0.1-1.3-0.1-1.9
		c0-0.1,0-0.3,0-0.4c-0.7-9.4-2.8-18.9-6.4-28.1c-3.3-8.5-7.7-16.2-13-23.1c0,0,0,0,0,0c-0.4-0.6-0.9-1.1-1.3-1.7
		c-0.1-0.1-0.2-0.3-0.3-0.4c-0.4-0.4-0.7-0.9-1.1-1.3c-0.2-0.2-0.4-0.4-0.5-0.6c-0.3-0.4-0.6-0.7-0.9-1.1c-0.2-0.2-0.4-0.5-0.7-0.7
		c-0.3-0.3-0.6-0.6-0.9-1c-0.2-0.3-0.5-0.5-0.7-0.8c-0.3-0.3-0.6-0.6-0.9-0.9c-0.2-0.2-0.4-0.5-0.7-0.7c-0.3-0.3-0.7-0.7-1-1
		c-0.2-0.2-0.4-0.4-0.6-0.5c-0.4-0.4-0.8-0.8-1.2-1.2c-0.1-0.1-0.2-0.2-0.3-0.3c-0.5-0.5-1-0.9-1.5-1.4c0,0,0,0,0,0
		C142.5,9,120.4,0.4,97.4,0c-0.4,0-0.8,0-1.3,0c-0.3,0-0.6,0-0.9,0c-0.5,0-1,0-1.5,0c-0.4,0-0.8,0-1.3,0c-0.4,0-0.7,0-1.1,0
		c-0.6,0-1.3,0.1-1.9,0.1c-0.1,0-0.3,0-0.4,0C79.7,0.9,70.3,3,61,6.6c-8.5,3.3-16.2,7.7-23.1,13c0,0,0,0,0,0
		c-0.6,0.4-1.1,0.9-1.7,1.3c-0.1,0.1-0.3,0.2-0.4,0.3c-0.4,0.4-0.9,0.7-1.3,1.1c-0.2,0.2-0.4,0.4-0.6,0.5c-0.4,0.3-0.7,0.6-1.1,0.9
		c-0.2,0.2-0.5,0.4-0.7,0.7c-0.3,0.3-0.6,0.6-1,0.9c-0.3,0.2-0.5,0.5-0.8,0.7c-0.3,0.3-0.6,0.6-0.9,0.9c-0.2,0.2-0.5,0.4-0.7,0.7
		c-0.3,0.3-0.7,0.7-1,1c-0.2,0.2-0.4,0.4-0.5,0.5c-0.4,0.4-0.8,0.8-1.2,1.2c-0.1,0.1-0.2,0.2-0.3,0.3c-0.5,0.5-0.9,1-1.4,1.5
		c0,0,0,0,0,0C9,49.5,0.3,71.6,0,94.7c0,0.4,0,0.8,0,1.2c0,0.3,0,0.6,0,1c0,0.5,0,1,0,1.4c0,0.4,0,0.8,0,1.3c0,0.4,0,0.7,0,1.1
		c0,0.6,0.1,1.3,0.1,1.9c0,0.1,0,0.3,0,0.4c0.7,9.4,2.8,18.9,6.4,28.1c3.3,8.5,7.7,16.2,13,23.1c0,0,0,0,0,0
		c0.4,0.6,0.9,1.1,1.3,1.7c0.1,0.1,0.2,0.3,0.3,0.4c0.4,0.4,0.7,0.9,1.1,1.3c0.2,0.2,0.4,0.4,0.5,0.6c0.3,0.4,0.6,0.7,0.9,1.1
		c0.2,0.2,0.4,0.5,0.7,0.7c0.3,0.3,0.6,0.6,0.9,1c0.2,0.3,0.5,0.5,0.7,0.8c0.3,0.3,0.6,0.6,0.9,0.9c0.2,0.2,0.4,0.5,0.7,0.7
		c0.3,0.3,0.7,0.7,1,1c0.2,0.2,0.4,0.4,0.6,0.5c0.4,0.4,0.8,0.8,1.2,1.2c0.1,0.1,0.2,0.2,0.3,0.3c0.5,0.5,1,0.9,1.5,1.4c0,0,0,0,0,0
		c2.2,1.9,4.4,3.7,6.8,5.5C39.2,172.5,39.2,171.9,39.2,171.8z"/>
	<path class="st1" d="M101.2,191.9c0.4,0,0.9,0,1.3-0.1c0.1,0,0.3,0,0.4,0c0.2,0,0.3,0,0.5,0C102.7,191.8,101.9,191.8,101.2,191.9z"
		/>
	<path class="st1" d="M92.2,191.9c0.7,0,1.3,0,2,0.1C93.6,192,92.9,191.9,92.2,191.9z"/>
	<path class="st1" d="M184.3,133.6c0.2-0.5,0.4-1,0.6-1.5C184.7,132.7,184.5,133.2,184.3,133.6z"/>
	<path class="st1" d="M161.7,166c0.3-0.3,0.6-0.6,0.9-0.9c0,0,0,0,0.1-0.1C162.4,165.3,162,165.7,161.7,166
		C161.7,166,161.7,166,161.7,166z"/>
	<path class="st1" d="M155.7,171.1C155.8,171.1,155.8,171.1,155.7,171.1c0.2-0.2,0.4-0.3,0.5-0.4c0.2-0.2,0.4-0.3,0.6-0.5
		C156.5,170.5,156.1,170.8,155.7,171.1z"/>
	<path class="st1" d="M98.3,192c0.4,0,0.8,0,1.3,0c0.4,0,0.7,0,1.1,0c-0.9,0-1.7,0.1-2.6,0.1C98.1,192,98.2,192,98.3,192z"/>
	<path class="st1" d="M159.8,167.7c0.1,0,0.1-0.1,0.2-0.1c0.3-0.3,0.6-0.5,0.8-0.8C160.5,167.1,160.2,167.4,159.8,167.7z"/>
	<path class="st1" d="M157.8,169.4c0.1-0.1,0.2-0.2,0.3-0.3c0.2-0.2,0.4-0.4,0.6-0.5C158.5,168.9,158.2,169.1,157.8,169.4z"/>
	<path class="st1" d="M151.8,174.1c0.4-0.3,0.7-0.5,1.1-0.8C152.6,173.6,152.2,173.8,151.8,174.1z"/>
	<path class="st1" d="M86,191.5c0.8,0.1,1.6,0.2,2.5,0.2C87.7,191.6,86.8,191.6,86,191.5z"/>
	<path class="st1" d="M88.7,191.7c0.9,0.1,1.8,0.1,2.7,0.2C90.5,191.8,89.6,191.8,88.7,191.7z"/>
	<path class="st1" d="M83.3,191.1c0.6,0.1,1.3,0.2,1.9,0.2C84.5,191.3,83.9,191.2,83.3,191.1z"/>
	<path class="st1" d="M95.9,192c0.3,0,0.6,0,0.9,0c0.1,0,0.2,0,0.3,0c-0.6,0-1.3,0-1.9,0C95.4,192,95.7,192,95.9,192z"/>
	<path class="st1" d="M82.4,191c-0.6-0.1-1.1-0.2-1.7-0.3c0,0,0,0,0,0C81.3,190.8,81.8,190.9,82.4,191z"/>
	<path class="st1" d="M185.2,131.3c0.2-0.4,0.4-0.9,0.5-1.3C185.6,130.4,185.4,130.9,185.2,131.3z"/>
	<path class="st1" d="M106.1,191.5C106.1,191.5,106.1,191.5,106.1,191.5c-0.6,0.1-1.2,0.1-1.8,0.2
		C104.9,191.6,105.5,191.5,106.1,191.5z"/>
	<path class="st2" d="M103.7,64.8c1.3,4.3,7.8,25,8.1,30.3c0.3,5.3,0.7,6.3,1.5,6c0.8-0.3,0-5.8-1-10.6c-1-4.8-4.1-17.9-5.8-23.2
		c-1.2-3.8-3.2-9.6-3-13.4c-1.2,2.7-1.9,5.8-2.4,8.8C102,62,103,62.4,103.7,64.8z"/>
	<path class="st2" d="M110.4,47.2c-1.9,0.4-3.5,1.5-4.7,3.1c2.6-0.8,4.8,2.7,6.8,7.3c2.3,5.1,6.6,14.1,9.6,24.2
		c3,10.1,3,14.6,4.3,14.4s-0.7-8.9-2-13.1c-1.3-4.1-4.8-15.1-7.9-21.5c-3.1-6.5-6.8-10.8-2.1-13.6c4.6-2.8,10.6,6.5,15.7,15.4
		c5.1,8.9,8.4,17.2,10.4,26.5c2,9.3,3.8,10.3,2.6,4.5c-1.2-5.8-4.3-19.7-9.4-27.8c-5.1-8.1-7.6-14.4-4.8-16.2c1.9-1.2,4.7-0.9,8,1.9
		c-1-1-2-1.7-2.8-2C127.2,46.9,119.2,45.3,110.4,47.2z"/>
	<path class="st2" d="M141.7,57.8c5.3,7.8,7.3,10.8,6.4,12.7c-0.8,2-3.3,11.3-2.1,16.4c1.2,5.1,4.5,20.7-1.5,25.2
		c0,0-14,9.3-20.3,19.9c-6.3,10.6-7.4,17.9-7.3,18.7c0.2,0.8,1.3,1.6,2.3-1.8c0,0,4.6-18.9,16-27.5c11.4-8.6,12.7-8.4,13.4-13.2
		c0.7-4.8,1.2-11.6,0-16.2c-1.1-4.5-1.5-17,2.1-21.7c-3.8-5.7-7.4-10.7-10.5-14.4C140.8,56.5,141.2,57.1,141.7,57.8z"/>
	<path class="st2" d="M84.1,53.6c0.7,3.6-1.6,10.3-2.9,14.6c-1.7,5.3-4.8,18.4-5.8,23.2c-1,4.8-1.8,10.3-1,10.6
		c0.8,0.3,1.2-0.7,1.5-6c0.3-5.3,6.8-26,8.1-30.3c0.8-2.6,2-2.9,2.9-1.8C87.2,59.6,86.1,56.2,84.1,53.6z"/>
	<path class="st2" d="M164.5,163.2c0.2-0.2,0.3-0.3,0.5-0.5c0.1-0.1,0.2-0.2,0.4-0.4c0.3-0.4,0.7-0.7,1-1.1c0.1-0.1,0.1-0.1,0.2-0.2
		c0.2-0.2,0.3-0.4,0.5-0.5c0.3-0.3,0.6-0.7,0.9-1.1c0.2-0.3,0.5-0.5,0.7-0.8c0.3-0.3,0.6-0.7,0.9-1c0.2-0.3,0.5-0.5,0.7-0.8
		c0.3-0.3,0.6-0.7,0.8-1c0.2-0.3,0.4-0.6,0.7-0.8c0.3-0.3,0.5-0.7,0.8-1.1c0.2-0.3,0.4-0.6,0.6-0.9c0.3-0.4,0.5-0.7,0.8-1.1
		c0.2-0.3,0.4-0.6,0.6-0.9c0.3-0.4,0.5-0.7,0.8-1.1c0.2-0.3,0.4-0.6,0.6-0.9c0.2-0.4,0.5-0.7,0.7-1.1c0.2-0.3,0.4-0.6,0.6-0.9
		c0.2-0.4,0.5-0.8,0.7-1.2c0.2-0.3,0.4-0.6,0.5-0.9c0.2-0.4,0.5-0.8,0.7-1.2c0.2-0.3,0.3-0.6,0.5-0.9c0.2-0.4,0.5-0.8,0.7-1.3
		c0.1-0.3,0.3-0.6,0.4-0.8c0.3-0.5,0.5-1,0.7-1.4c0.1-0.2,0.2-0.5,0.4-0.7c0.4-0.7,0.7-1.4,1-2.2c0,0,0,0,0,0c0.3-0.7,0.6-1.4,1-2.1
		c0.1-0.2,0.2-0.5,0.3-0.7c0.2-0.5,0.4-1,0.6-1.5c0.1-0.3,0.2-0.6,0.3-0.9c0.2-0.4,0.4-0.9,0.5-1.3c0-0.1,0.1-0.1,0.1-0.2
		c0,0,0,0,0,0c0-0.2-9.3-17.4-20.3-35.8c1,3,0.3,4.3-0.2,8.1c-0.7,5.5-0.3,15.9-2.1,25.8c0,0-2.8,12.2-7.1,19.5
		c-4.3,7.3-7.8,13.9-7.6,23.5c0,0.7,0.2,2.8,0.4,5.2c0.3-0.2,0.6-0.4,0.9-0.6c0.4-0.3,0.7-0.5,1.1-0.8c0.3-0.2,0.6-0.4,0.9-0.6
		c0.4-0.3,0.7-0.5,1.1-0.8c0.3-0.2,0.6-0.4,0.9-0.6c0.4-0.3,0.7-0.6,1.1-0.8c0.3-0.2,0.6-0.4,0.8-0.7c0.4-0.3,0.7-0.6,1.1-0.9
		c0.2-0.1,0.3-0.3,0.5-0.4c0.2-0.1,0.3-0.3,0.5-0.4c0.3-0.3,0.6-0.5,1-0.8c0.1-0.1,0.2-0.2,0.4-0.3c0.2-0.2,0.4-0.4,0.7-0.6
		c0.3-0.3,0.7-0.6,1-0.9c0,0,0.1-0.1,0.1-0.1c0.2-0.2,0.5-0.4,0.7-0.7c0.4-0.3,0.7-0.7,1.1-1c0.2-0.2,0.4-0.4,0.6-0.6
		c0,0,0.1-0.1,0.1-0.1C163.8,163.9,164.2,163.6,164.5,163.2z"/>
	<path class="st2" d="M51.6,52.2c-2.7,1.6-5.2,5.3-7.7,9.6c0.6-0.9,1.3-1.9,2.1-3c5.3-7.8,10.1-9.4,12.9-7.6
		c2.8,1.8,0.3,8.1-4.8,16.2c-5.1,8.1-8.3,22-9.4,27.8c-1.2,5.8,0.7,4.8,2.6-4.5c2-9.3,5.3-17.5,10.4-26.5
		c5.1-8.9,11.1-18.2,15.7-15.4c4.6,2.8,1,7.1-2.1,13.6c-3.1,6.5-6.6,17.4-7.9,21.5C62,88.1,60,96.8,61.3,97
		c1.3,0.2,1.3-4.3,4.3-14.4c3-10.1,7.3-19,9.6-24.2c1.9-4.2,3.9-7.4,6.1-7.4C73.6,45.5,59.5,46.5,51.6,52.2z"/>
	<path class="st2" d="M39,92.9c-1.2,4.6-0.7,11.4,0,16.2c0.7,4.8,2,4.6,13.4,13.2c11.4,8.6,16,27.5,16,27.5c1,3.5,2.1,2.6,2.3,1.8
		c0.2-0.8-1-8.1-7.3-18.7c-6.3-10.6-20.3-19.9-20.3-19.9c-5.9-4.5-2.6-20-1.5-25.2c1.2-5.1-1.3-14.4-2.1-16.4
		c-0.2-0.5-0.2-1-0.1-1.7c-0.5,0.9-1.1,1.9-1.6,2.8C40.4,78,40,88.7,39,92.9z"/>
	<path class="st2" d="M103.4,191.7c0.3,0,0.6,0,0.9-0.1c0.6-0.1,1.2-0.1,1.8-0.2c2-22.3-9.8-41.8-6.5-55.3
		c3.3-13.7,2.4-31.4,1.9-38.7L88,66.6c0.1,0.3,0.1,0.6,0.2,0.9c0.6,4.1-1.6,25.3-1.7,27.8c-0.2,2.5-2.3,25.2,1.7,41.7
		c3,12.7-6.8,35.5-7.4,53.7c0.6,0.1,1.1,0.2,1.7,0.3c0.3,0,0.6,0.1,0.9,0.1c0.6,0.1,1.3,0.2,1.9,0.2c0.3,0,0.6,0.1,0.8,0.1
		c0.8,0.1,1.6,0.2,2.5,0.2c0.1,0,0.2,0,0.3,0c0.9,0.1,1.8,0.1,2.7,0.2c0,0,0.1,0,0.1,0c0.1,0,0.3,0,0.4,0c0.1,0,0.2,0,0.3,0
		c0.7,0,1.3,0,2,0.1c0,0,0,0,0.1,0c0.3,0,0.6,0,0.9,0c0.6,0,1.3,0,1.9,0c0.3,0,0.6,0,0.9,0c0.9,0,1.7,0,2.6-0.1c0,0,0.1,0,0.1,0
		c0.1,0,0.3,0,0.4,0C101.9,191.8,102.7,191.8,103.4,191.7z"/>
	<path class="st3" d="M80.7,190.8c0.6-18.2,10.4-41,7.4-53.7c-4-16.6-1.8-39.2-1.7-41.7c0.2-2.5,2.3-23.7,1.7-27.8
		c0-0.3-0.1-0.6-0.2-0.9c-0.3-1.2-0.7-2.1-1.1-2.7c-0.9-1.1-2.1-0.8-2.9,1.8c-1.3,4.3-7.8,25-8.1,30.3c-0.3,5.3-0.7,6.3-1.5,6
		c-0.8-0.3,0-5.8,1-10.6c1-4.8,4.1-17.9,5.8-23.2c1.3-4.3,3.6-11,2.9-14.6c-0.2-0.9-0.5-1.5-1.1-2c-0.6-0.4-1.1-0.6-1.6-0.6
		c-2.3-0.1-4.3,3.2-6.1,7.4c-2.3,5.1-6.6,14.1-9.6,24.2c-3,10.1-3,14.6-4.3,14.4c-1.3-0.2,0.7-8.9,2-13.1c1.3-4.1,4.8-15.1,7.9-21.5
		c3.1-6.5,6.8-10.8,2.1-13.6c-4.6-2.8-10.6,6.5-15.7,15.4c-5.1,8.9-8.4,17.2-10.4,26.5c-2,9.3-3.8,10.3-2.6,4.5
		c1.2-5.8,4.3-19.7,9.4-27.8c5.1-8.1,7.6-14.4,4.8-16.2C56,49.3,51.2,51,46,58.8c-0.8,1.1-1.4,2.1-2.1,3c-2.7,4-4.1,6.4-4.5,8
		c-0.1,0.6-0.1,1.2,0.1,1.7c0.8,2,3.3,11.3,2.1,16.4c-1.2,5.1-4.5,20.7,1.5,25.2c0,0,14,9.3,20.3,19.9c6.3,10.6,7.4,17.9,7.3,18.7
		c-0.2,0.8-1.3,1.6-2.3-1.8c0,0-4.6-18.9-16-27.5c-11.4-8.6-12.7-8.4-13.4-13.2c-0.7-4.8-1.2-11.6,0-16.2c1-4.1,1.4-14.8-1.2-20.3
		c-0.3-0.7-0.7-1.3-1.1-1.8c-3.8-4.5-6.8-1-7.3,2.5c-0.5,3.5-0.5,8.9-4.8,16.4c-4.3,7.4-3,7.8-2.3,13.2c0.7,5.5,0.3,15.9,2.1,25.8
		c0,0,2.8,12.2,7.1,19.5c4.3,7.3,7.8,13.9,7.6,23.5c0,0.1,0,0.7-0.1,1.5c0,0,0,0,0,0C51.1,182.2,65.3,188.3,80.7,190.8
		C80.7,190.8,80.7,190.8,80.7,190.8C80.7,190.8,80.7,190.8,80.7,190.8z"/>
	<path class="st3" d="M148.5,170.9c-0.2-9.6,3.3-16.2,7.6-23.5c4.3-7.3,7.1-19.5,7.1-19.5c1.8-9.9,1.5-20.4,2.1-25.8
		c0.5-3.8,1.2-5.1,0.2-8.1c-0.4-1.3-1.2-2.9-2.5-5.1c-4.3-7.4-4.3-12.9-4.8-16.4c-0.5-3.5-3.5-7-7.3-2.5c-0.1,0.1-0.1,0.2-0.2,0.3
		c-3.5,4.7-3.2,17.2-2.1,21.7c1.2,4.6,0.7,11.4,0,16.2c-0.7,4.8-2,4.6-13.4,13.2c-11.4,8.6-16,27.5-16,27.5c-1,3.5-2.1,2.6-2.3,1.8
		c-0.2-0.8,1-8.1,7.3-18.7c6.3-10.6,20.3-19.9,20.3-19.9c5.9-4.5,2.6-20,1.5-25.2c-1.2-5.1,1.3-14.4,2.1-16.4c0.8-2-1.2-5-6.4-12.7
		c-0.5-0.7-1-1.3-1.4-2c-1.2-1.5-2.4-2.8-3.5-3.7c-3.3-2.8-6.1-3.2-8-1.9c-2.8,1.8-0.3,8.1,4.8,16.2c5.1,8.1,8.3,22,9.4,27.8
		c1.2,5.8-0.7,4.8-2.6-4.5c-2-9.3-5.3-17.5-10.4-26.5c-5.1-8.9-11.1-18.2-15.7-15.4c-4.6,2.8-1,7.1,2.1,13.6
		c3.1,6.5,6.6,17.4,7.9,21.5c1.3,4.1,3.3,12.9,2,13.1s-1.3-4.3-4.3-14.4c-3-10.1-7.3-19-9.6-24.2c-2.1-4.6-4.3-8.1-6.8-7.3
		c-0.3,0.1-0.6,0.2-1,0.5c-0.8,0.6-1.2,1.7-1.2,3.2c-0.1,3.7,1.8,9.5,3,13.4c1.7,5.3,4.8,18.4,5.8,23.2c1,4.8,1.8,10.3,1,10.6
		c-0.8,0.3-1.2-0.7-1.5-6c-0.3-5.3-6.8-26-8.1-30.3c-0.7-2.4-1.7-2.8-2.6-2.1c-0.7,0.6-1.3,2-1.6,3.9c-0.6,4.1,1.6,25.3,1.7,27.8
		c0,0.4,0.1,1.5,0.2,3c0.5,7.2,1.4,25-1.9,38.7c-3.2,13.5,8.5,33,6.5,55.3c0,0,0,0,0,0c0,0,0,0,0,0c15.7-1.6,30.3-7.1,42.8-15.4
		c0,0,0,0,0,0C148.7,173.7,148.5,171.6,148.5,170.9z"/>
</g>
</svg>
